<svg width="78" height="49" viewBox="0 0 78 49" fill="none" xmlns="http://www.w3.org/2000/svg">
<path d="M43.1667 29.5V18.5H48.375V28.5C48.375 28.7652 48.2653 29.0196 48.0699 29.2071C47.8746 29.3946 47.6096 29.5 47.3333 29.5H43.1667ZM41.0833 29.5H30.6667C30.3904 29.5 30.1254 29.3946 29.9301 29.2071C29.7347 29.0196 29.625 28.7652 29.625 28.5V18.5H41.0833V29.5ZM48.375 16.5H29.625V12.5C29.625 12.2348 29.7347 11.9804 29.9301 11.7929C30.1254 11.6054 30.3904 11.5 30.6667 11.5H47.3333C47.6096 11.5 47.8746 11.6054 48.0699 11.7929C48.2653 11.9804 48.375 12.2348 48.375 12.5V16.5Z" fill="#979798"/>
<path d="M25.4043 44.1538C26.8193 44.1538 27.852 43.3452 28.0366 42.1279V42.1016H27.061L27.0522 42.1191C26.872 42.8354 26.2436 43.2837 25.4043 43.2837C24.2617 43.2837 23.5498 42.3389 23.5498 40.8359V40.8271C23.5498 39.3198 24.2617 38.375 25.3999 38.375C26.2348 38.375 26.872 38.8804 27.0566 39.6582V39.6714H28.0322L28.0366 39.6494C27.8696 38.3882 26.7973 37.5049 25.3999 37.5049C23.6377 37.5049 22.5434 38.7793 22.5434 40.8271V40.8359C22.5434 42.8794 23.6421 44.1538 25.4043 44.1538ZM30.6027 44.0791C31.2355 44.0791 31.7365 43.8066 32.0177 43.3232H32.0924V44H33.0372V40.7349C33.0372 39.7329 32.3605 39.1353 31.1608 39.1353C30.0753 39.1353 29.3239 39.6582 29.2096 40.4404L29.2052 40.4712H30.1237L30.1281 40.4536C30.2423 40.1152 30.5895 39.9219 31.1168 39.9219C31.7628 39.9219 32.0924 40.2119 32.0924 40.7349V41.1567L30.8004 41.2314C29.6622 41.3018 29.0206 41.7983 29.0206 42.6509V42.6597C29.0206 43.5254 29.693 44.0791 30.6027 44.0791ZM29.9699 42.6201V42.6113C29.9699 42.1807 30.2687 41.9434 30.9279 41.9038L32.0924 41.8291V42.2378C32.0924 42.853 31.5695 43.3188 30.8576 43.3188C30.3434 43.3188 29.9699 43.0596 29.9699 42.6201ZM36.2537 44.0308C36.4383 44.0308 36.6141 44.0088 36.7679 43.9824V43.2222C36.6361 43.2354 36.5526 43.2397 36.4075 43.2397C35.9373 43.2397 35.744 43.0288 35.744 42.5146V39.979H36.7679V39.2275H35.744V38.0234H34.7728V39.2275H34.0257V39.979H34.7728V42.7432C34.7728 43.6616 35.2034 44.0308 36.2537 44.0308ZM39.2593 44.0791C39.8921 44.0791 40.3931 43.8066 40.6743 43.3232H40.749V44H41.6938V40.7349C41.6938 39.7329 41.0171 39.1353 39.8174 39.1353C38.7319 39.1353 37.9805 39.6582 37.8662 40.4404L37.8618 40.4712H38.7803L38.7847 40.4536C38.8989 40.1152 39.2461 39.9219 39.7734 39.9219C40.4194 39.9219 40.749 40.2119 40.749 40.7349V41.1567L39.457 41.2314C38.3188 41.3018 37.6772 41.7983 37.6772 42.6509V42.6597C37.6772 43.5254 38.3496 44.0791 39.2593 44.0791ZM38.6265 42.6201V42.6113C38.6265 42.1807 38.9253 41.9434 39.5845 41.9038L40.749 41.8291V42.2378C40.749 42.853 40.2261 43.3188 39.5142 43.3188C39 43.3188 38.6265 43.0596 38.6265 42.6201ZM43.1525 44H44.1061V37.3555H43.1525V44ZM47.6171 44.0923C49.0145 44.0923 49.8714 43.1562 49.8714 41.6182V41.6094C49.8714 40.0713 49.0101 39.1353 47.6171 39.1353C46.2196 39.1353 45.3583 40.0757 45.3583 41.6094V41.6182C45.3583 43.1562 46.2152 44.0923 47.6171 44.0923ZM47.6171 43.2969C46.7953 43.2969 46.3338 42.6772 46.3338 41.6182V41.6094C46.3338 40.5503 46.7953 39.9307 47.6171 39.9307C48.4344 39.9307 48.9003 40.5503 48.9003 41.6094V41.6182C48.9003 42.6729 48.4344 43.2969 47.6171 43.2969ZM53.0967 45.6831C54.4502 45.6831 55.3072 44.9888 55.3072 43.9033V39.2275H54.358V40.0098H54.3008C54.024 39.4736 53.5054 39.144 52.8374 39.144C51.5982 39.144 50.8379 40.1064 50.8379 41.4688V41.4775C50.8379 42.8223 51.5938 43.7671 52.8199 43.7671C53.4746 43.7671 54.002 43.4771 54.292 42.9585H54.3623V43.8989C54.3623 44.5493 53.8965 44.9185 53.1099 44.9185C52.4639 44.9185 52.0772 44.6855 51.9981 44.356L51.9937 44.3472H51.0313L51.0225 44.356C51.1368 45.1514 51.8838 45.6831 53.0967 45.6831ZM53.0835 42.9805C52.2705 42.9805 51.8135 42.3608 51.8135 41.4731V41.4644C51.8135 40.5767 52.2705 39.9526 53.0835 39.9526C53.8877 39.9526 54.3799 40.5767 54.3799 41.4644V41.4731C54.3799 42.3652 53.8921 42.9805 53.0835 42.9805Z" fill="#979798"/>
</svg>
